<?xml version="1.0" encoding="utf-8"?><!-- Uploaded to: SVG Repo, www.svgrepo.com, Generator: SVG Repo Mixer Tools -->
<svg fill="#000000" width="800px" height="800px" viewBox="0 0 24 24" role="img" xmlns="http://www.w3.org/2000/svg"><title>Upwork icon</title>
<path d="M18.561 13.158c-1.102 0-2.135-.467-3.074-1.227l.228-1.076.008-.042c.207-1.143.849-3.06 2.839-3.06 1.492 0 2.703 1.212 2.703 2.703-.001 1.489-1.212 2.702-2.704 2.702zm0-8.14c-2.539 0-4.51 1.649-5.31 4.366-1.22-1.834-2.148-4.036-2.687-5.892H7.828v7.112c-.002 1.406-1.141 2.546-2.547 2.548-1.405-.002-2.543-1.143-2.545-2.548V3.492H0v7.112c0 2.914 2.37 5.303 5.281 5.303 2.913 0 5.283-2.389 5.283-5.303v-1.19c.529 1.107 1.182 2.229 1.974 3.221l-1.673 7.873h2.797l1.213-5.71c1.063.679 2.285 1.109 3.686 1.109 3 0 5.439-2.452 5.439-5.45 0-3-2.439-5.439-5.439-5.439z"/></svg>

<svg width="24px" height="24px" viewBox="0 0 45 45" version="1.1" xmlns="http://www.w3.org/2000/svg" xmlns:xlink="http://www.w3.org/1999/xlink">
    <title>Upwork</title>
    <g id="Icon/Social/upwork-color" stroke="none" stroke-width="1" fill="none" fill-rule="evenodd">
        <g id="Group" transform="translate(5.000000, 10.000000)">
            <!-- U shape -->
            <path d="M5,10 C5,6 7,3 10,3 C13,3 15,6 15,10 L15,20 C15,21 16,21 16,20 L16,10 C16,5 13,0 10,0 C7,0 4,5 4,10 L4,20 C4,21 5,21 5,20 L5,10 Z" id="U-shape" fill="#6fda44"></path>
            <!-- P shape -->
            <path d="M20,10 C20,6 22,3 25,3 C28,3 30,6 30,10 C30,14 28,17 25,17 C22,17 20,14 20,10 Z M22,10 C22,12.5 23.5,15 25,15 C26.5,15 28,12.5 28,10 C28,7.5 26.5,5 25,5 C23.5,5 22,7.5 22,10 Z" id="P-shape" fill="#1c1c1c"></path>
            <!-- W shape -->
            <path d="M10,25 L13,15 L16,25 L19,15 L22,25 C22.5,26 24,26 24.5,25 L27,15 L30,25 C30.5,26 31.5,26 32,25 C32.5,24 32,23 32,23 L29,13 C28.5,12 27.5,12 27,13 L24,23 L21,13 C20.5,12 19.5,12 19,13 L16,23 L13,13 C12.5,12 11.5,12 11,13 L8,23 C8,23 7.5,24 8,25 C8.5,26 9.5,26 10,25 Z" id="W-shape" fill="#6fda44"></path>
        </g>
    </g>
</svg>